<svg width="24" height="24" viewBox="0 0 24 24" fill="none" xmlns="http://www.w3.org/2000/svg">
<path d="M20.25 12.243C21.0695 11.5947 21.7055 10.7436 22.095 9.77398C22.364 10.552 22.499 11.428 22.5 12.402C22.5 14.73 21.678 16.362 20.835 17.412C20.4491 17.8949 20.0001 18.3237 19.5 18.687V20.25C19.5 20.8467 19.2629 21.419 18.841 21.841C18.419 22.2629 17.8467 22.5 17.25 22.5H16.5C16.1022 22.5 15.7206 22.3419 15.4393 22.0606C15.158 21.7793 15 21.3978 15 21H12C12 21.3978 11.842 21.7793 11.5607 22.0606C11.2794 22.3419 10.8978 22.5 10.5 22.5H9.75C9.15326 22.5 8.58097 22.2629 8.15901 21.841C7.73705 21.419 7.5 20.8467 7.5 20.25V19.9305C6.54227 19.6248 5.6726 19.0921 4.965 18.378C4.0785 17.4765 3.5805 16.35 3.33 15.6435C3.30081 15.5462 3.24904 15.4572 3.17892 15.3836C3.10881 15.3101 3.02232 15.2542 2.9265 15.2205C2.51655 15.1037 2.15571 14.8567 1.8984 14.5169C1.64108 14.177 1.50125 13.7627 1.5 13.3365V12.1455C1.5 11.2815 2.073 10.5225 2.9025 10.2855C3.0585 10.2405 3.2265 10.089 3.309 9.83848C3.5115 9.22798 3.9 8.32498 4.614 7.60198C5.22806 6.98671 5.93087 6.46693 6.699 6.05998V3.24448C6.69988 3.0165 6.7691 2.79402 6.89772 2.60578C7.02633 2.41753 7.20843 2.27218 7.4205 2.18848C7.62665 2.10208 7.85344 2.07734 8.07336 2.11728C8.29329 2.15722 8.4969 2.26011 8.6595 2.41348C9.039 2.77198 9.537 3.19948 10.0695 3.54898C10.617 3.90748 11.13 4.13398 11.5485 4.17598H11.556C10.7518 5.36668 10.4016 6.80643 10.569 8.23348C10.7505 9.77698 11.9445 10.704 12.9465 11.1195L16.5315 12.603C17.532 13.0185 19.032 13.206 20.2515 12.243M7.125 11.25C7.42337 11.25 7.70952 11.1315 7.9205 10.9205C8.13147 10.7095 8.25 10.4234 8.25 10.125C8.25 9.82662 8.13147 9.54047 7.9205 9.32949C7.70952 9.11851 7.42337 8.99998 7.125 8.99998C6.82663 8.99998 6.54048 9.11851 6.3295 9.32949C6.11853 9.54047 6 9.82662 6 10.125C6 10.4234 6.11853 10.7095 6.3295 10.9205C6.54048 11.1315 6.82663 11.25 7.125 11.25ZM12.345 5.87998C12.5993 5.2381 12.9978 4.66333 13.5098 4.20016C14.0219 3.73699 14.6336 3.39784 15.2977 3.20897C15.9617 3.0201 16.6604 2.98656 17.3395 3.11096C18.0186 3.23535 18.66 3.51435 19.214 3.92635C19.768 4.33834 20.2198 4.87229 20.5344 5.48687C20.849 6.10145 21.0179 6.78018 21.0282 7.47052C21.0384 8.16086 20.8897 8.84431 20.5935 9.46795C20.2973 10.0916 19.8615 10.6387 19.32 11.067C18.696 11.559 17.8395 11.5215 17.1045 11.217L13.5195 9.73198C12.7845 9.42898 12.1515 8.84848 12.0585 8.05948C12.0144 7.67742 12.0194 7.29127 12.0735 6.91048L12.345 5.87998ZM12.345 5.87998L12.141 6.53698C12.1921 6.3131 12.2603 6.09346 12.345 5.87998Z" fill="black"/>
</svg>

